<svg width="75" height="75" viewBox="0 0 75 75" fill="none" xmlns="http://www.w3.org/2000/svg">
<g clip-path="url(#clip0_185_318)">
<path d="M37.5005 72.8213C34.4322 72.8213 31.5628 71.7862 29.4199 69.9067C27.7044 68.4013 25.6579 65.6456 25.6579 61.0637C25.6579 55.5739 28.5683 53.307 30.908 51.486C32.7844 50.0246 34.3318 48.8194 34.8709 45.9941C33.4505 45.5759 32.1715 44.8309 31.1488 43.8082C30.1137 42.7731 29.3708 41.4829 28.969 40.0512C26.1734 40.6016 24.9733 42.1582 23.5181 44.0439C21.6971 46.404 19.4312 49.3421 13.9352 49.3421C9.35436 49.3421 6.59867 47.2966 5.09324 45.5811C3.21376 43.4382 2.17871 40.5688 2.17871 37.5015C2.17871 34.4343 3.21376 31.5638 5.09324 29.421C6.59867 27.7044 9.35436 25.6589 13.9352 25.6589C19.4302 25.6589 21.6971 28.597 23.5181 30.9572C24.9733 32.8428 26.1734 34.3995 28.969 34.9498C29.3708 33.5181 30.1137 32.2279 31.1488 31.1929C32.1715 30.1701 33.4505 29.4251 34.8709 29.007C34.3318 26.1806 32.7844 24.9764 30.9069 23.5151C28.5683 21.694 25.6579 19.4282 25.6579 13.9383C25.6579 9.35642 27.7034 6.60074 29.4199 5.09531C31.5628 3.21582 34.4322 2.18077 37.5005 2.18077C40.5687 2.18077 43.4382 3.21582 45.58 5.09531C47.2955 6.60074 49.341 9.35642 49.341 13.9383C49.341 19.4282 46.4306 21.695 44.091 23.5161C42.2136 24.9775 40.6671 26.1816 40.1271 29.008C41.5485 29.4261 42.8274 30.1711 43.8502 31.1939C44.8729 32.2166 45.6272 33.5192 46.0289 34.9508C48.8256 34.4005 50.0256 32.8448 51.4808 30.9582C53.3019 28.5981 55.5677 25.66 61.0637 25.66C65.6456 25.66 68.4013 27.7055 69.9067 29.422C71.7862 31.5649 72.8202 34.4343 72.8202 37.5026C72.8202 40.5708 71.7852 43.4403 69.9057 45.5821C68.4003 47.2976 65.6446 49.3431 61.0627 49.3431C55.5677 49.3431 53.3009 46.406 51.4798 44.0459C50.0246 42.1603 48.8245 40.6046 46.0289 40.0533C45.6272 41.4849 44.8852 42.7752 43.8502 43.8102C42.8274 44.833 41.5485 45.578 40.1271 45.9961C40.6671 48.8215 42.2146 50.0266 44.091 51.488C46.4296 53.3091 49.341 55.5759 49.341 61.0658C49.341 65.6477 47.2955 68.4034 45.58 69.9088C43.4382 71.7883 40.5687 72.8233 37.5005 72.8233V72.8213Z" fill="#B8FF67"/>
<path d="M37.5005 4.35745C42.3314 4.35745 47.1634 7.49334 47.1634 13.9352C47.1634 23.0047 38.0939 20.5462 37.7547 30.8024C41.3999 30.9725 44.1125 33.6001 44.1966 37.3294C54.4538 36.9912 51.9953 27.8356 61.0648 27.8356C67.5067 27.8356 70.6426 32.6676 70.6426 37.4995C70.6426 42.3314 67.5067 47.1623 61.0648 47.1623C51.9953 47.1623 54.4538 38.0088 44.1966 37.6686C44.1125 41.3989 41.3999 44.0264 37.7547 44.1955C38.0939 54.4517 47.1634 51.9932 47.1634 61.0637C47.1634 67.5056 42.3324 70.6415 37.5005 70.6415C32.6686 70.6415 27.8377 67.5056 27.8377 61.0637C27.8377 51.9932 36.9072 54.4517 37.2453 44.1955C33.6012 44.0264 30.8885 41.3989 30.8034 37.6686C20.5472 38.0088 23.0057 47.1623 13.9363 47.1623C7.49539 47.1623 4.35848 42.3314 4.35848 37.4995C4.35848 32.6676 7.49539 27.8356 13.9363 27.8356C23.0057 27.8356 20.5472 36.9912 30.8034 37.3294C30.8885 33.6001 33.6022 30.9725 37.2453 30.8024C36.9072 20.5462 27.8377 23.0047 27.8377 13.9352C27.8377 7.49334 32.6686 4.35745 37.5005 4.35745ZM37.5005 0C33.9035 0 30.5237 1.22669 27.9832 3.4546C26.5587 4.70383 25.4468 6.22156 24.6792 7.96475C23.883 9.77249 23.4792 11.7811 23.4792 13.9352C23.4792 16.8354 24.1761 19.257 25.6087 21.3374C26.8108 23.0836 28.2763 24.2242 29.5696 25.2316C30.5626 26.0043 31.4194 26.6725 31.9686 27.4759C32.0281 27.563 32.0906 27.6604 32.1541 27.7711C31.2175 28.2691 30.3597 28.8994 29.6085 29.6505C28.8543 30.4048 28.223 31.2656 27.729 32.2033C27.6409 32.1511 27.562 32.0988 27.4903 32.0496C26.6858 31.4952 26.0176 30.6282 25.2429 29.6249C24.2376 28.3214 23.098 26.8436 21.3527 25.6313C19.2683 24.1832 16.8426 23.4782 13.9352 23.4782C11.7811 23.4782 9.7725 23.8819 7.96475 24.6782C6.22156 25.4458 4.70486 26.5577 3.4546 27.9822C1.22669 30.5226 0 33.9035 0 37.5005C0 41.0976 1.22669 44.4774 3.45563 47.0168C4.70486 48.4413 6.22259 49.5522 7.96577 50.3197C9.77352 51.116 11.7821 51.5198 13.9363 51.5198C16.8436 51.5198 19.2693 50.8157 21.3538 49.3677C23.099 48.1554 24.2386 46.6776 25.2439 45.3741C26.0176 44.3708 26.6868 43.5038 27.4913 42.9494C27.563 42.9002 27.6419 42.8489 27.729 42.7957C28.223 43.7333 28.8543 44.5932 29.6085 45.3484C30.3587 46.0986 31.2164 46.7299 32.1531 47.2279C32.0896 47.3386 32.0271 47.436 31.9676 47.5231C31.4194 48.3265 30.5616 48.9936 29.5686 49.7674C28.2753 50.7737 26.8108 51.9154 25.6077 53.6616C24.175 55.743 23.4782 58.1646 23.4782 61.0648C23.4782 63.2189 23.8819 65.2275 24.6782 67.0353C25.4458 68.7784 26.5577 70.2962 27.9822 71.5454C30.5216 73.7733 33.9024 75 37.4995 75C41.0965 75 44.4763 73.7733 47.0158 71.5454C48.4403 70.2962 49.5522 68.7784 50.3197 67.0353C51.116 65.2275 51.5198 63.2189 51.5198 61.0648C51.5198 58.1646 50.8229 55.743 49.3902 53.6616C48.1882 51.9154 46.7227 50.7737 45.4294 49.7674C44.4364 48.9947 43.5796 48.3265 43.0303 47.5231C42.9709 47.437 42.9084 47.3396 42.8448 47.2279C43.7815 46.7299 44.6393 46.0996 45.3905 45.3484C46.1416 44.5973 46.775 43.7333 47.2699 42.7967C47.3581 42.8489 47.437 42.9012 47.5087 42.9504C48.3132 43.5048 48.9824 44.3718 49.7561 45.3751C50.7614 46.6786 51.902 48.1554 53.6462 49.3677C55.7307 50.8157 58.1564 51.5198 61.0637 51.5198C63.2179 51.5198 65.2265 51.116 67.0342 50.3197C68.7774 49.5522 70.2952 48.4403 71.5444 47.0158C73.7723 44.4763 74.999 41.0965 74.999 37.4995C74.999 33.9024 73.7723 30.5226 71.5444 27.9822C70.2952 26.5577 68.7774 25.4458 67.0342 24.6782C65.2265 23.8819 63.2169 23.4782 61.0637 23.4782C58.1564 23.4782 55.7307 24.1822 53.6462 25.6303C51.901 26.8426 50.7614 28.3204 49.7561 29.6239C48.9824 30.6272 48.3132 31.4942 47.5087 32.0486C47.437 32.0978 47.3581 32.15 47.2699 32.2023C46.776 31.2646 46.1457 30.4048 45.3905 29.6505C44.6403 28.9004 43.7815 28.2691 42.8448 27.7711C42.9084 27.6604 42.9709 27.563 43.0303 27.4759C43.5786 26.6725 44.4364 26.0053 45.4294 25.2316C46.7227 24.2253 48.1882 23.0836 49.3902 21.3374C50.8229 19.257 51.5198 16.8354 51.5198 13.9352C51.5198 11.7811 51.116 9.77249 50.3197 7.96475C49.5522 6.22156 48.4403 4.70383 47.0158 3.4546C44.4763 1.22669 41.0976 0 37.5005 0Z" fill="#D9480A"/>
<path d="M37.5006 4.35745C42.3315 4.35745 47.1634 7.49334 47.1634 13.9352C47.1634 23.0047 38.0939 20.5462 37.7547 30.8024C41.3999 30.9725 44.1126 33.6001 44.1966 37.3294C54.4538 36.9912 51.9953 27.8356 61.0648 27.8356C67.5067 27.8356 70.6426 32.6676 70.6426 37.4995C70.6426 42.3314 67.5067 47.1623 61.0648 47.1623C51.9953 47.1623 54.4538 38.0088 44.1966 37.6686C44.1126 41.3989 41.3999 44.0264 37.7547 44.1955C38.0939 54.4517 47.1634 51.9932 47.1634 61.0637C47.1634 67.5056 42.3325 70.6415 37.5006 70.6415C32.6686 70.6415 27.8377 67.5056 27.8377 61.0637C27.8377 51.9932 36.9072 54.4517 37.2454 44.1955C33.6012 44.0264 30.8886 41.3989 30.8035 37.6686C20.5473 38.0088 23.0058 47.1623 13.9363 47.1623C7.49544 47.1623 4.35853 42.3314 4.35853 37.4995C4.35853 32.6676 7.49544 27.8356 13.9363 27.8356C23.0058 27.8356 20.5473 36.9912 30.8035 37.3294C30.8886 33.6001 33.6022 30.9725 37.2454 30.8024C36.9072 20.5462 27.8377 23.0047 27.8377 13.9352C27.8377 7.49334 32.6686 4.35745 37.5006 4.35745ZM37.5006 1.45214C34.2561 1.45214 31.2165 2.55073 28.9414 4.54704C27.6779 5.65587 26.691 7.00246 26.0095 8.55093C25.2952 10.1732 24.9324 11.985 24.9324 13.9363C24.9324 16.5321 25.5453 18.6842 26.8058 20.5155C27.8808 22.0773 29.252 23.1451 30.4622 24.0869C32.1204 25.3782 33.428 26.3958 34.0142 28.5263C32.7383 28.9998 31.5854 29.7284 30.6354 30.6784C29.6742 31.6397 28.9466 32.8008 28.4834 34.0849C26.3876 33.4874 25.3751 32.1746 24.0931 30.5124C23.1513 29.2919 22.0845 27.9094 20.5237 26.8241C18.6914 25.5503 16.5352 24.9313 13.9353 24.9313C11.9841 24.9313 10.1732 25.2941 8.54996 26.0084C7.00252 26.6899 5.6549 27.6768 4.54607 28.9404C2.55078 31.2154 1.45117 34.255 1.45117 37.4995C1.45117 40.744 2.54976 43.7836 4.54607 46.0576C5.6549 47.3212 7.00149 48.3081 8.54996 48.9895C10.1722 49.7038 11.9841 50.0666 13.9343 50.0666C16.5352 50.0666 18.6904 49.4476 20.5227 48.1738C22.0835 47.0896 23.1503 45.7061 24.0921 44.4866C25.3741 42.8254 26.3866 41.5126 28.4823 40.9141C28.9455 42.1992 29.6731 43.3603 30.6344 44.3206C31.5844 45.2705 32.7373 45.9992 34.0132 46.4726C33.427 48.6022 32.1183 49.6208 30.4612 50.911C29.2509 51.8528 27.8797 52.9207 26.8047 54.4825C25.5442 56.3128 24.9314 58.4649 24.9314 61.0617C24.9314 63.0129 25.2942 64.8248 26.0085 66.447C26.69 67.9945 27.6768 69.3421 28.9404 70.4509C31.2155 72.4462 34.255 73.5458 37.4995 73.5458C40.7441 73.5458 43.7836 72.4472 46.0577 70.4509C47.3212 69.3421 48.3081 67.9955 48.9896 66.447C49.7039 64.8248 50.0667 63.0129 50.0667 61.0617C50.0667 58.4649 49.4538 56.3128 48.1933 54.4825C47.1183 52.9207 45.7461 51.8528 44.5368 50.911C42.8787 49.6198 41.5711 48.6022 40.9839 46.4726C42.2608 45.9992 43.4126 45.2705 44.3637 44.3195C45.3239 43.3593 46.0525 42.1972 46.5147 40.9131C48.6104 41.5106 49.6229 42.8243 50.905 44.4855C51.8468 45.7061 52.9136 47.0885 54.4743 48.1728C56.3067 49.4466 58.4618 50.0656 61.0628 50.0656C63.014 50.0656 64.8259 49.7028 66.4481 48.9885C67.9956 48.307 69.3432 47.3201 70.452 46.0566C72.4473 43.7815 73.5469 40.742 73.5469 37.4985C73.5469 34.255 72.4483 31.2144 70.453 28.9393C69.3442 27.6747 67.9976 26.6889 66.4491 26.0064C64.8269 25.2921 63.015 24.9293 61.0638 24.9293C58.4629 24.9293 56.3077 25.5483 54.4754 26.8221C52.9146 27.9063 51.8478 29.2898 50.906 30.5103C49.624 32.1716 48.6115 33.4853 46.5157 34.0828C46.0525 32.7977 45.3249 31.6366 44.3647 30.6764C43.4147 29.7264 42.2618 28.9967 40.9849 28.5233C41.5721 26.3937 42.8797 25.3751 44.5379 24.0838C45.7482 23.142 47.1193 22.0742 48.1944 20.5124C49.4549 18.6821 50.0677 16.53 50.0677 13.9332C50.0677 11.982 49.7049 10.1701 48.9906 8.54786C48.3091 7.00041 47.3223 5.6528 46.0587 4.54396C43.7836 2.54868 40.7441 1.44907 37.5006 1.44907V1.45214Z" fill="#815B12"/>
<path d="M37.5005 4.35745C42.3314 4.35745 47.1633 7.49334 47.1633 13.9352C47.1633 23.0047 38.0938 20.5462 37.7546 30.8024C41.3998 30.9725 44.1125 33.6001 44.1965 37.3294C54.4537 36.9912 51.9953 27.8356 61.0647 27.8356C67.5066 27.8356 70.6425 32.6676 70.6425 37.4995C70.6425 42.3314 67.5066 47.1623 61.0647 47.1623C51.9953 47.1623 54.4537 38.0088 44.1965 37.6686C44.1125 41.3989 41.3998 44.0264 37.7546 44.1955C38.0938 54.4517 47.1633 51.9932 47.1633 61.0637C47.1633 67.5056 42.3324 70.6415 37.5005 70.6415C32.6685 70.6415 27.8376 67.5056 27.8376 61.0637C27.8376 51.9932 36.9071 54.4517 37.2453 44.1955C33.6011 44.0264 30.8885 41.3989 30.8034 37.6686C20.5472 38.0088 23.0057 47.1623 13.9362 47.1623C7.49535 47.1623 4.35844 42.3314 4.35844 37.4995C4.35844 32.6676 7.49535 27.8356 13.9362 27.8356C23.0057 27.8356 20.5472 36.9912 30.8034 37.3294C30.8885 33.6001 33.6021 30.9725 37.2453 30.8024C36.9071 20.5462 27.8376 23.0047 27.8376 13.9352C27.8376 7.49334 32.6685 4.35745 37.5005 4.35745ZM37.5005 2.90531C34.6085 2.90531 31.9092 3.87579 29.8995 5.63947C27.6009 7.65628 26.3855 10.5247 26.3855 13.9363C26.3855 19.0715 29.0254 21.1263 31.3548 22.9402C33.4218 24.5491 35.2357 25.9613 35.6927 29.546C34.1412 29.8811 32.7444 30.6241 31.6632 31.7053C30.5677 32.7998 29.8309 34.2099 29.5183 35.7737C25.9582 35.3074 24.5491 33.4812 22.9442 31.3999C21.1303 29.049 19.0746 26.3845 13.9362 26.3845C10.5257 26.3845 7.65625 27.5999 5.63944 29.8996C3.87678 31.9092 2.90527 34.6096 2.90527 37.5015C2.90527 40.3935 3.87678 43.0928 5.63944 45.1025C7.65625 47.4011 10.5247 48.6165 13.9362 48.6165C19.0746 48.6165 21.1303 45.952 22.9442 43.6012C24.5491 41.5208 25.9582 39.6946 29.5183 39.2273C29.8309 40.7911 30.5677 42.2013 31.6632 43.2958C32.7444 44.3769 34.1412 45.1199 35.6927 45.455C35.2357 49.0387 33.4218 50.4509 31.3548 52.0599C29.0254 53.8737 26.3855 55.9295 26.3855 61.0648C26.3855 64.4763 27.6009 67.3448 29.8995 69.3616C31.9092 71.1242 34.6085 72.0957 37.5005 72.0957C40.3925 72.0957 43.0918 71.1252 45.1014 69.3616C47.4001 67.3448 48.6155 64.4763 48.6155 61.0648C48.6155 55.9295 45.9756 53.8737 43.6452 52.0599C41.5782 50.4509 39.7643 49.0387 39.3072 45.455C40.8587 45.1199 42.2556 44.3769 43.3377 43.2958C44.4322 42.2013 45.1691 40.7911 45.4816 39.2273C49.0428 39.6946 50.4519 41.5208 52.0567 43.6012C53.8706 45.952 55.9264 48.6165 61.0647 48.6165C64.4763 48.6165 67.3447 47.4011 69.3615 45.1025C71.1242 43.0928 72.0957 40.3935 72.0957 37.5015C72.0957 34.6096 71.1252 31.9102 69.3615 29.8996C67.3447 27.5999 64.4763 26.3845 61.0647 26.3845C55.9264 26.3845 53.8706 29.049 52.0567 31.3999C50.4519 33.4802 49.0428 35.3074 45.4816 35.7737C45.1691 34.2099 44.4322 32.8008 43.3377 31.7053C42.2433 30.6098 40.8598 29.8811 39.3072 29.546C39.7643 25.9623 41.5782 24.5501 43.6452 22.9412C45.9746 21.1273 48.6144 19.0715 48.6144 13.9373C48.6144 10.5257 47.399 7.65731 45.1004 5.6405C43.0908 3.87784 40.3914 2.90633 37.4995 2.90633L37.5005 2.90531Z" fill="#B6B8B7"/>
</g>
<defs>
<clipPath id="clip0_185_318">
<rect width="75" height="75" fill="white"/>
</clipPath>
</defs>
</svg>
