<svg width="72" height="72" viewBox="0 0 72 72" fill="none" xmlns="http://www.w3.org/2000/svg">
<path d="M66.9419 22.3241C65.3402 18.2665 63.0079 14.6884 60.0095 11.6901C57.0111 8.69167 53.4331 6.35932 49.3755 4.7576C45.2251 3.11955 40.6742 2.28882 35.8497 2.28882C31.0251 2.28882 26.4742 3.11955 22.3238 4.7576C18.2662 6.35932 14.6882 8.69167 11.6898 11.6901C8.69142 14.6884 6.35908 18.2665 4.75736 22.3241C3.11931 26.4745 2.28857 31.0254 2.28857 35.8499C2.28857 40.6744 3.11931 45.2253 4.75736 49.3757C6.35908 53.4333 8.69142 57.0114 11.6898 60.0097C14.6882 63.0081 18.2662 65.3405 22.3238 66.9422C26.4742 68.5802 31.0251 69.411 35.8497 69.411C40.6742 69.411 45.2251 68.5802 49.3755 66.9422C53.4331 65.3405 57.0111 63.0081 60.0095 60.0097C63.0079 57.0114 65.3402 53.4333 66.9419 49.3757C68.58 45.2253 69.4107 40.6744 69.4107 35.8499C69.4107 31.0254 68.58 26.4745 66.9419 22.3241ZM33.1153 64.446C29.6171 64.1739 26.3104 63.3625 23.2716 62.0297C20.3241 60.7371 17.6955 58.9852 15.4447 56.8144L33.1161 39.859V64.446H33.1153ZM33.1153 32.4196L11.9764 52.6389C8.79234 47.9492 7.11473 42.168 7.11473 35.8491C7.11473 31.8407 7.784 28.0504 9.10477 24.5838C10.3852 21.2229 12.2509 18.2326 14.6486 15.6976C17.0383 13.1715 19.8978 11.158 23.1481 9.71374C26.2119 8.35259 29.5606 7.5259 33.1145 7.25303V32.4196H33.1153ZM48.4277 62.0305C45.3889 63.3625 42.0813 64.1739 38.584 64.4468V39.8599L56.2563 56.8152C54.0055 58.9861 51.376 60.7379 48.4285 62.0305H48.4277ZM59.7237 52.6397L38.584 32.4204V7.25383C42.1379 7.52671 45.4866 8.3534 48.5504 9.71454C51.8007 11.1588 54.6602 13.1723 57.0499 15.6984C59.4484 18.2342 61.3133 21.2237 62.5937 24.5846C63.9145 28.0512 64.5838 31.8416 64.5838 35.8499C64.5838 42.168 62.9062 47.9492 59.7229 52.6397H59.7237Z" fill="#E7ECD8"/>
<path d="M35.8498 2.28875C40.6744 2.28875 45.2252 3.11948 49.3756 4.75753C53.4332 6.35926 57.0113 8.6916 60.0097 11.69C63.008 14.6884 65.3404 18.2664 66.9421 22.324C68.5802 26.4744 69.4109 31.0253 69.4109 35.8498C69.4109 40.6744 68.5802 45.2252 66.9421 49.3757C65.3404 53.4332 63.008 57.0113 60.0097 60.0097C57.0113 63.0081 53.4332 65.3404 49.3756 66.9421C45.2252 68.5802 40.6744 69.4109 35.8498 69.4109C31.0253 69.4109 26.4744 68.5802 22.324 66.9421C18.2664 65.3404 14.6884 63.0081 11.69 60.0097C8.6916 57.0113 6.35925 53.4332 4.75753 49.3757C3.11948 45.2252 2.28875 40.6744 2.28875 35.8498C2.28875 31.0253 3.11948 26.4744 4.75753 22.324C6.35925 18.2664 8.6916 14.6884 11.69 11.69C14.6884 8.6916 18.2664 6.35926 22.324 4.75753C26.4744 3.11948 31.0253 2.28875 35.8498 2.28875ZM59.7239 52.6397C62.9071 47.9499 64.5847 42.1687 64.5847 35.8498C64.5847 31.8415 63.9155 28.0511 62.5947 24.5845C61.3143 21.2236 59.4486 18.2333 57.0508 15.6983C54.6612 13.1722 51.8016 11.1588 48.5514 9.71447C45.4868 8.35333 42.1388 7.52664 38.585 7.25377V32.4203L59.7247 52.6397M11.9774 52.6397L33.1162 32.4203V7.25377C29.5624 7.52664 26.2137 8.35333 23.1499 9.71447C19.8996 11.1588 17.0401 13.1722 14.6504 15.6983C12.2519 18.2341 10.387 21.2236 9.10656 24.5845C7.78579 28.0511 7.11652 31.8415 7.11652 35.8498C7.11652 42.1687 8.79413 47.9499 11.9782 52.6397M38.5858 64.4467C42.0839 64.1746 45.3907 63.3633 48.4295 62.0304C51.377 60.7379 54.0064 58.986 56.2572 56.8151L38.585 39.8598V64.4467M33.1162 64.4467V39.8598L15.4448 56.8151C17.6956 58.986 20.3251 60.7379 23.2718 62.0304C26.3105 63.3625 29.6181 64.1738 33.1154 64.4467M35.8498 0C30.7363 0 25.9028 0.884822 21.4836 2.62863C17.1329 4.3458 13.2933 6.85011 10.0713 10.0721C6.8501 13.2933 4.3458 17.1329 2.62782 21.4844C0.884822 25.9037 0 30.7371 0 35.8498C0 40.9626 0.884822 45.7968 2.62863 50.2161C4.3458 54.5675 6.8501 58.4071 10.0721 61.6283C13.2933 64.8495 17.1329 67.3539 21.4844 69.0718C25.9036 70.8164 30.7371 71.7005 35.8506 71.7005C40.9642 71.7005 45.7976 70.8156 50.2169 69.0718C54.5675 67.3547 58.4071 64.8504 61.6291 61.6283C64.8503 58.4071 67.3547 54.5675 69.0726 50.2161C70.8172 45.7968 71.7013 40.9634 71.7013 35.8498C71.7013 30.7363 70.8164 25.9028 69.0726 21.4836C67.3555 17.1321 64.8512 13.2925 61.6291 10.0713C58.4079 6.85011 54.5683 4.3458 50.2169 2.62782C45.7968 0.884822 40.9634 0 35.8498 0ZM12.4658 49.0051C10.4556 45.1631 9.40366 40.6695 9.40366 35.8498C9.40366 32.1208 10.0229 28.6041 11.2435 25.3991C12.4166 22.3208 14.1216 19.5864 16.3119 17.2702C18.4925 14.9645 21.1057 13.1262 24.0783 11.8054C26.1846 10.8697 28.4467 10.2061 30.8275 9.82508V31.4419L12.4658 49.0051ZM40.873 31.4419V9.82588C43.2537 10.2069 45.5151 10.8697 47.6222 11.8062C50.5947 13.127 53.208 14.9661 55.3886 17.271C57.5788 19.5864 59.2839 22.3216 60.4569 25.3999C61.6784 28.6049 62.2968 32.1208 62.2968 35.8506C62.2968 40.6695 61.2449 45.1631 59.2354 49.0051L40.8738 31.4427L40.873 31.4419ZM40.873 61.8713V45.2268L52.8681 56.736C51.2478 58.0107 49.4532 59.0821 47.5091 59.9346C45.4303 60.8461 43.2061 61.4943 40.8722 61.8713H40.873ZM18.8323 56.736L30.8275 45.2268V61.8713C28.4935 61.4943 26.2702 60.8461 24.1905 59.9346C22.2465 59.0821 20.4526 58.0107 18.8323 56.736Z" fill="#815B12"/>
<path d="M35.8501 2.28876C40.6746 2.28876 45.2255 3.11949 49.3759 4.75754C53.4335 6.35927 57.0115 8.69161 60.0099 11.69C63.0083 14.6884 65.3406 18.2664 66.9424 22.324C68.5804 26.4744 69.4111 31.0253 69.4111 35.8498C69.4111 40.6744 68.5804 45.2252 66.9424 49.3757C65.3406 53.4333 63.0083 57.0113 60.0099 60.0097C57.0115 63.0081 53.4335 65.3404 49.3759 66.9421C45.2255 68.5802 40.6746 69.4109 35.8501 69.4109C31.0255 69.4109 26.4747 68.5802 22.3242 66.9421C18.2666 65.3404 14.6886 63.0081 11.6902 60.0097C8.69184 57.0113 6.3595 53.4333 4.75777 49.3757C3.11972 45.2252 2.28899 40.6744 2.28899 35.8498C2.28899 31.0253 3.11972 26.4744 4.75777 22.324C6.3595 18.2664 8.69184 14.6884 11.6902 11.69C14.6886 8.69161 18.2666 6.35927 22.3242 4.75754C26.4747 3.11949 31.0255 2.28876 35.8501 2.28876ZM59.7241 52.6397C62.9074 47.9499 64.585 42.1687 64.585 35.8498C64.585 31.8415 63.9157 28.0511 62.5949 24.5845C61.3145 21.2236 59.4488 18.2333 57.0511 15.6983C54.6614 13.1722 51.8019 11.1588 48.5516 9.71449C45.487 8.35334 42.1391 7.52665 38.5853 7.25378V32.4203L59.7249 52.6397M11.9776 52.6397L33.1165 32.4203V7.25378C29.5627 7.52665 26.2139 8.35334 23.1501 9.71449C19.8999 11.1588 17.0403 13.1722 14.6507 15.6983C12.2521 18.2341 10.3872 21.2236 9.1068 24.5845C7.78603 28.0511 7.11676 31.8415 7.11676 35.8498C7.11676 42.1687 8.79437 47.9499 11.9784 52.6397M38.5861 64.4467C42.0842 64.1746 45.391 63.3633 48.4297 62.0304C51.3772 60.7379 54.0067 58.986 56.2575 56.8151L38.5853 39.8598V64.4467M33.1165 64.4467V39.8598L15.4451 56.8151C17.6959 58.986 20.3253 60.7379 23.272 62.0304C26.3108 63.3625 29.6184 64.1738 33.1157 64.4467M35.8501 1.14398C30.881 1.14398 26.1889 2.00136 21.9044 3.69269C17.6999 5.35254 13.9911 7.77046 10.8813 10.8803C7.7715 13.99 5.35277 17.6989 3.69373 21.9034C2.00239 26.1886 1.14502 30.88 1.14502 35.849C1.14502 40.8181 2.00239 45.5102 3.69373 49.7947C5.35358 53.9992 7.7715 57.708 10.8813 60.8178C13.9911 63.9276 17.6999 66.3463 21.9044 68.0054C26.1897 69.6967 30.881 70.5541 35.8501 70.5541C40.8191 70.5541 45.5113 69.6967 49.7957 68.0054C54.0002 66.3455 57.709 63.9276 60.8188 60.8178C63.9286 57.708 66.3474 53.9992 68.0064 49.7947C69.6977 45.5094 70.5551 40.8181 70.5551 35.849C70.5551 30.88 69.6977 26.1878 68.0064 21.9034C66.3466 17.6989 63.9286 13.99 60.8188 10.8803C57.709 7.77046 54.0002 5.35173 49.7957 3.69269C45.5105 2.00136 40.8191 1.14398 35.8501 1.14398ZM12.1908 50.8514C9.61461 46.5686 8.25912 41.4139 8.25912 35.8498C8.25912 31.9812 8.90336 28.328 10.1741 24.9922C11.4004 21.7726 13.1862 18.9099 15.4798 16.4847C17.7653 14.0684 20.5013 12.1429 23.6127 10.76C26.1986 9.61115 29.0048 8.85711 31.9701 8.51319V31.9311L12.19 50.8514H12.1908ZM39.7284 31.9311V8.51319C42.6937 8.85711 45.5 9.61115 48.0858 10.76C51.1972 12.1421 53.9332 14.0684 56.2187 16.4847C58.5131 18.9099 60.2981 21.7726 61.5244 24.9922C62.7952 28.328 63.4394 31.9812 63.4394 35.8498C63.4394 41.4131 62.0847 46.5686 59.5086 50.8514L39.7276 31.9311H39.7284ZM39.7284 63.1857V42.5433L54.5847 56.7974C52.6342 58.5056 50.4141 59.9104 47.9687 60.9825C45.4095 62.1047 42.6429 62.8442 39.7284 63.1857ZM17.1154 56.7974L31.9709 42.5433V63.1857C29.0565 62.8442 26.2898 62.1047 23.7306 60.9825C21.2852 59.9104 19.0651 58.5056 17.1154 56.7974Z" fill="#EE04A7"/>
</svg>
