<svg width="77" height="77" viewBox="0 0 77 77" fill="none" xmlns="http://www.w3.org/2000/svg">
<path d="M50.1373 68.5233C45.8916 68.5233 41.9597 66.4701 39.343 62.8892C38.9665 62.4011 38.6202 61.9037 38.3021 61.3958C38.0153 61.8663 37.7045 62.3295 37.3708 62.7854C34.7249 66.3725 30.7513 68.4257 26.4606 68.4257C23.5696 68.4257 20.7589 67.49 18.332 65.7182C15.2679 63.5207 13.279 60.351 12.7315 56.792C12.1943 53.2993 13.1121 49.7589 15.3169 46.8188C15.6736 46.3266 16.0438 45.8582 16.4287 45.4147C15.8769 45.2932 15.3242 45.1488 14.7704 44.9806L14.7339 44.9692L14.6984 44.9577C11.1723 43.7873 8.35218 41.4018 6.75857 38.2404C5.16184 35.0739 4.92718 31.3809 6.09527 27.8426L6.09944 27.8311C8.01114 22.1181 13.0496 18.4271 18.9338 18.4271C20.3783 18.4271 21.8321 18.6535 23.2536 19.1011L23.2985 19.1157C23.8512 19.2995 24.3883 19.502 24.9088 19.7253C24.8608 19.1666 24.8368 18.6006 24.8368 18.0252C24.8368 14.3228 26.2322 10.9008 28.7676 8.38959C31.3019 5.87839 34.7582 4.49609 38.5003 4.49609C42.2423 4.49609 45.6892 5.88255 48.2048 8.39998C50.7078 10.9049 52.0866 14.3228 52.0866 18.0242C52.0866 18.6421 52.0595 19.2507 52.0052 19.8489C52.5058 19.637 53.02 19.4428 53.5488 19.2673L53.5603 19.2631C55.0224 18.7844 56.5159 18.5414 58.0011 18.5414C63.8686 18.5414 68.8403 22.25 70.6758 27.9942C71.8898 31.5543 71.6677 35.2713 70.048 38.4627C68.4398 41.6334 65.5978 43.9961 62.0445 45.1177C61.4824 45.3005 60.9182 45.4573 60.3529 45.5871C60.7179 46.0129 61.0673 46.4595 61.4021 46.9258C63.5589 49.9147 64.4287 53.5019 63.8436 57.0184C63.2606 60.5234 61.2884 63.6391 58.2868 65.792C55.8391 67.5783 53.0221 68.5223 50.1394 68.5223L50.1373 68.5233ZM38.4231 33.8381C36.0077 33.8381 33.8081 35.992 33.8081 38.3568C33.8081 40.8472 35.9211 42.9523 38.4231 42.9523C40.9251 42.9523 42.9609 40.762 42.9609 38.3568C42.9609 35.9515 40.7551 33.8381 38.4231 33.8381Z" fill="#E7ECD8"/>
<path d="M38.4999 7.43828C44.6178 7.43828 49.1295 12.0079 49.1295 18.0231C49.1295 22.6685 47.2939 26.1715 44.7711 28.7606C45.0767 28.9122 45.3061 29.1407 45.6117 29.3692C47.3701 26.2473 50.1234 23.5056 54.4829 22.0589C55.6687 21.6705 56.8524 21.4846 57.9997 21.4846C62.4738 21.4846 66.4047 24.3063 67.8658 28.9122C69.8536 34.7 66.948 40.4879 61.1358 42.3147C59.4316 42.8703 57.8078 43.1123 56.2705 43.1123C53.806 43.1123 51.5668 42.4922 49.5884 41.5544C49.5112 41.8587 49.4351 42.163 49.2828 42.4684C52.8006 43.1528 56.3184 44.9048 58.9946 48.6363C62.5124 53.5101 61.4413 59.9065 56.5469 63.4106C54.5569 64.8656 52.3251 65.578 50.137 65.578C46.9446 65.578 43.8439 64.0618 41.7111 61.1258C38.8806 57.4701 38.3456 53.587 38.8045 50.084H37.8867C38.2694 53.587 37.6583 57.3943 34.9811 61.05C32.8389 63.9548 29.6903 65.4804 26.4592 65.4804C24.2701 65.4804 22.0445 64.7804 20.0671 63.3348C15.1726 59.8318 14.0264 53.4343 17.6976 48.5604C20.4499 44.7531 23.8915 43.078 27.4094 42.3925C27.2561 42.0882 27.1789 41.784 27.1027 41.4786C25.1441 42.3614 22.9852 42.9326 20.5761 42.9326C19.0346 42.9326 17.3909 42.6989 15.6315 42.1641C9.89641 40.2604 6.9908 34.5495 8.9025 28.7617C10.4335 24.1869 14.4196 21.3703 18.9324 21.3703C20.0525 21.3703 21.206 21.5438 22.3616 21.9073C26.72 23.355 29.4733 26.0968 31.1556 29.2955C31.4622 29.066 31.6916 28.9143 31.9211 28.6858C29.6266 26.0209 27.7911 22.6696 27.7911 18.0242C27.7911 12.0089 32.38 7.43932 38.4978 7.43932M38.4207 45.8966C42.3974 45.8966 45.9152 42.3936 45.9152 38.3578C45.9152 34.322 42.3974 30.8948 38.4207 30.8948C34.444 30.8948 30.85 34.3978 30.85 38.3578C30.85 42.3178 34.2906 45.8966 38.4207 45.8966ZM38.4978 1.55182C33.9694 1.55182 29.7727 3.23945 26.6804 6.30212C24.1106 8.84863 22.4982 12.1502 22.0247 15.7664C20.9984 15.5773 19.9639 15.4828 18.9314 15.4828C15.4344 15.4828 12.1064 16.5598 9.3082 18.5985C6.50792 20.6382 4.42831 23.5087 3.29256 26.9006L3.28838 26.912L3.28421 26.9234C1.86999 31.2064 2.1641 35.695 4.11334 39.5625C5.73928 42.7882 8.39772 45.3493 11.7195 46.932C9.935 50.0954 9.25814 53.6825 9.80463 57.2385C10.1352 59.3873 10.8935 61.4238 12.0584 63.2911C13.2244 65.1605 14.7492 66.7786 16.5889 68.1006C19.5248 70.24 22.9362 71.371 26.4561 71.371C29.0009 71.371 31.5477 70.7572 33.8213 69.5972C35.4952 68.7425 36.995 67.624 38.2986 66.2583C41.4108 69.5941 45.6211 71.4697 50.1328 71.4697C53.6444 71.4697 57.0621 70.3314 60.0188 68.1765C63.6524 65.5656 66.0438 61.7759 66.754 57.5023C67.3464 53.9422 66.7238 50.3312 64.9988 47.1293C68.3529 45.5829 71.0374 43.0344 72.681 39.7931C74.6564 35.8975 74.939 31.385 73.4789 27.0782C72.388 23.6832 70.3543 20.8064 67.5936 18.7563C64.8152 16.6917 61.4956 15.6012 57.9955 15.6012C56.9651 15.6012 55.9326 15.6968 54.9084 15.8879C54.4599 12.2312 52.8611 8.89328 50.2966 6.326C47.2251 3.24568 43.0346 1.55078 38.4999 1.55078L38.4978 1.55182ZM38.4207 40.0091C37.5529 40.0091 36.7624 39.2219 36.7624 38.3578C36.7624 37.6994 37.5978 36.7834 38.4207 36.7834C39.1299 36.7834 40.0028 37.6516 40.0028 38.3578C40.0028 39.1772 39.0829 40.0091 38.4207 40.0091Z" fill="#B8FF67"/>
<path d="M38.5002 7.43829C44.6181 7.43829 49.1298 12.0079 49.1298 18.0231C49.1298 22.6685 47.2943 26.1715 44.7714 28.7606C45.077 28.9123 45.3064 29.1407 45.612 29.3692C47.3704 26.2473 50.1237 23.5056 54.4832 22.0589C55.669 21.6705 56.8528 21.4846 58 21.4846C62.4742 21.4846 66.405 24.3063 67.8661 28.9122C69.854 34.7001 66.9484 40.4879 61.1361 42.3147C59.4319 42.8703 57.8081 43.1123 56.2708 43.1123C53.8063 43.1123 51.5672 42.4922 49.5887 41.5544C49.5115 41.8587 49.4354 42.163 49.2831 42.4684C52.801 43.1528 56.3188 44.9048 58.9949 48.6363C62.5128 53.5102 61.4417 59.9065 56.5472 63.4106C54.5573 64.8656 52.3254 65.578 50.1373 65.578C46.9449 65.578 43.8442 64.0618 41.7114 61.1258C38.8809 57.4701 38.3459 53.587 38.8048 50.084H37.887C38.2698 53.587 37.6586 57.3943 34.9814 61.05C32.8392 63.9548 29.6906 65.4804 26.4596 65.4804C24.2704 65.4804 22.0448 64.7804 20.0674 63.3348C15.1729 59.8318 14.0267 53.4343 17.6979 48.5605C20.4502 44.7532 23.8919 43.078 27.4097 42.3925C27.2564 42.0883 27.1792 41.784 27.1031 41.4786C25.1444 42.3614 22.9856 42.9326 20.5764 42.9326C19.0349 42.9326 17.3913 42.6989 15.6318 42.1641C9.89673 40.2604 6.99111 34.5495 8.90281 28.7617C10.4338 24.1869 14.4199 21.3703 18.9327 21.3703C20.0528 21.3703 21.2063 21.5438 22.3619 21.9073C26.7203 23.355 29.4736 26.0968 31.1559 29.2955C31.4625 29.066 31.692 28.9143 31.9214 28.6858C29.627 26.0209 27.7914 22.6696 27.7914 18.0242C27.7914 12.0089 32.3803 7.43932 38.4982 7.43932M38.421 45.8966C42.3977 45.8966 45.9155 42.3936 45.9155 38.3578C45.9155 34.322 42.3977 30.8948 38.421 30.8948C34.4443 30.8948 30.8503 34.3978 30.8503 38.3578C30.8503 42.3178 34.291 45.8966 38.421 45.8966ZM38.4982 3.02344C34.3629 3.02344 30.5364 4.5584 27.7226 7.34586C25.0057 10.0378 23.4663 13.6633 23.3621 17.5963C21.9019 17.1705 20.4137 16.9555 18.9317 16.9555C15.7507 16.9555 12.7241 17.9348 10.1804 19.7876C7.62939 21.6456 5.73229 24.2668 4.69457 27.3669L4.69144 27.3752L4.68832 27.3835C3.39716 31.2936 3.66207 35.3845 5.43506 38.902C7.1559 42.3167 10.1554 44.9131 13.9058 46.2445C11.6238 49.4411 10.6873 53.2505 11.2671 57.0152C11.8752 60.9669 14.0737 64.4793 17.4601 66.9094C20.1415 68.865 23.2525 69.8984 26.4575 69.8984C31.0944 69.8984 35.3933 67.7475 38.3136 63.9828C41.2108 67.8099 45.5015 69.997 50.1352 69.997C53.3329 69.997 56.4491 68.9564 59.1514 66.9863C62.469 64.6049 64.6518 61.1518 65.2984 57.2614C65.9252 53.4904 65.0513 49.653 62.8371 46.4086C66.6105 45.1239 69.6287 42.5504 71.3641 39.1284C73.1611 35.5849 73.4135 31.4702 72.0765 27.5362C71.0805 24.4309 69.2261 21.8024 66.7127 19.9351C64.1919 18.0626 61.1778 17.0718 57.9979 17.0718C56.5128 17.0718 55.0224 17.2909 53.5592 17.723C53.4851 13.7464 51.9624 10.0772 49.2498 7.36351C46.4547 4.56567 42.6365 3.02551 38.4971 3.02551L38.4982 3.02344ZM38.421 41.4807C37.6075 41.4807 36.8274 41.1494 36.2225 40.5471C35.6176 39.9447 35.2849 39.1668 35.2849 38.3578C35.2849 36.8197 36.8388 35.3107 38.421 35.3107C39.1489 35.3107 39.9155 35.6576 40.5235 36.2641C41.1316 36.8706 41.481 37.6329 41.481 38.3578C41.481 39.9343 39.9656 41.4807 38.421 41.4807Z" fill="#815B12"/>
<path d="M38.5004 7.43829C44.6183 7.43829 49.13 12.0079 49.13 18.0231C49.13 22.6685 47.2944 26.1715 44.7716 28.7606C45.0772 28.9123 45.3066 29.1407 45.6122 29.3692C47.3706 26.2473 50.1239 23.5056 54.4834 22.0589C55.6692 21.6705 56.8529 21.4846 58.0002 21.4846C62.4744 21.4846 66.4052 24.3063 67.8663 28.9123C69.8541 34.7001 66.9485 40.4879 61.1363 42.3147C59.4332 42.8703 57.8083 43.1123 56.271 43.1123C53.8065 43.1123 51.5673 42.4923 49.5889 41.5544C49.5117 41.8587 49.4356 42.163 49.2833 42.4684C52.8011 43.1528 56.3189 44.9048 58.9951 48.6363C62.5129 53.5102 61.4418 59.9066 56.5474 63.4106C54.5574 64.8656 52.3256 65.578 50.1375 65.578C46.9451 65.578 43.8444 64.0618 41.7116 61.1258C38.8811 57.4701 38.3461 53.587 38.805 50.084H37.8872C38.2699 53.587 37.6588 57.3943 34.9816 61.05C32.8394 63.9548 29.6908 65.4804 26.4598 65.4804C24.2706 65.4804 22.045 64.7804 20.0676 63.3348C15.1731 59.8318 14.0269 53.4343 17.6981 48.5605C20.4504 44.7532 23.892 43.078 27.4099 42.3926C27.2566 42.0883 27.1794 41.784 27.1032 41.4786C25.1446 42.3614 22.9857 42.9326 20.5766 42.9326C19.0351 42.9326 17.3914 42.6989 15.632 42.1641C9.89691 40.2604 6.9913 34.5495 8.903 28.7617C10.434 24.1869 14.4201 21.3703 18.9329 21.3703C20.053 21.3703 21.2065 21.5438 22.3621 21.9073C26.7205 23.355 29.4738 26.0968 31.1561 29.2955C31.4627 29.066 31.6922 28.9143 31.9216 28.6859C29.6271 26.0209 27.7916 22.6696 27.7916 18.0242C27.7916 12.0089 32.3805 7.43933 38.4983 7.43933M38.4212 45.8966C42.3979 45.8966 45.9157 42.3936 45.9157 38.3578C45.9157 34.322 42.3979 30.8948 38.4212 30.8948C34.4445 30.8948 30.8505 34.3978 30.8505 38.3578C30.8505 42.3178 34.2911 45.8966 38.4212 45.8966ZM38.4983 4.49609C34.7563 4.49609 31.3 5.8784 28.7657 8.38959C26.2313 10.9008 24.8349 14.3228 24.8349 18.0252C24.8349 18.6006 24.8588 19.1676 24.9068 19.7274C24.3854 19.503 23.8482 19.2995 23.2965 19.1167L23.2736 19.1094L23.2506 19.1022C21.8291 18.6556 20.3753 18.4282 18.9308 18.4282C16.0648 18.4282 13.3407 19.3088 11.0525 20.9757C8.75073 22.653 7.03615 25.0239 6.09646 27.8322L6.09438 27.8374L6.09229 27.8426C4.92316 31.3809 5.15887 35.0739 6.7556 38.2405C8.3492 41.4018 11.1683 43.7873 14.6955 44.9577L14.7309 44.9692L14.7674 44.9806C15.3223 45.1488 15.8761 45.2942 16.4288 45.4147C16.0408 45.8602 15.6696 46.3276 15.3139 46.8178C13.1092 49.7569 12.1914 53.2983 12.7285 56.7909C13.276 60.35 15.2639 63.5186 18.328 65.7162C20.7559 67.4879 23.5667 68.4247 26.4587 68.4247C30.7493 68.4247 34.7229 66.3715 37.3626 62.7927L37.3657 62.7885L37.3688 62.7844C37.7026 62.3284 38.0134 61.8642 38.3012 61.3937C38.6193 61.9037 38.9666 62.4022 39.341 62.8892C41.9578 66.4701 45.8896 68.5233 50.1354 68.5233C53.0181 68.5233 55.835 67.5793 58.2828 65.793C61.2833 63.6401 63.2565 60.5245 63.8395 57.0194C64.4236 53.5039 63.5559 49.9178 61.3949 46.9227C61.0612 46.4584 60.7118 46.0129 60.3468 45.5881C60.912 45.4583 61.4763 45.3025 62.0374 45.1198C65.5927 43.9981 68.4358 41.6344 70.044 38.4637C71.6626 35.2713 71.8858 31.5543 70.6708 27.9942C69.7707 25.1776 68.0958 22.7994 65.8274 21.1138C63.5632 19.4324 60.8557 18.5434 57.997 18.5434C56.5119 18.5434 55.0174 18.7865 53.5562 19.2652L53.551 19.2673L53.5458 19.2694C53.016 19.4449 52.5008 19.6391 52.0002 19.852C52.0565 19.2517 52.0836 18.6431 52.0836 18.0262C52.0836 14.3249 50.7048 10.907 48.2018 8.40102C45.6862 5.88359 42.2393 4.49713 38.4973 4.49713L38.4983 4.49609ZM38.4212 42.9534C35.9202 42.9534 33.8062 40.8493 33.8062 38.3578C33.8062 37.2455 34.3141 36.1052 35.1985 35.2308C36.0923 34.347 37.2666 33.8391 38.4212 33.8391C39.5757 33.8391 40.6854 34.3438 41.5687 35.2235C42.4521 36.1031 42.959 37.2455 42.959 38.3578C42.959 39.4701 42.45 40.6758 41.5614 41.5669C40.6822 42.4476 39.5381 42.9534 38.4212 42.9534Z" fill="#9B15EF"/>
<path d="M38.5003 7.43835C44.6182 7.43835 49.1299 12.0079 49.1299 18.0232C49.1299 22.6686 47.2943 26.1716 44.7715 28.7607C45.077 28.9123 45.3065 29.1408 45.6121 29.3693C47.3705 26.2474 50.1238 23.5057 54.4833 22.059C55.6691 21.6706 56.8528 21.4847 58 21.4847C62.4742 21.4847 66.405 24.3064 67.8662 28.9123C69.854 34.7001 66.9484 40.4879 61.1361 42.3147C59.433 42.8703 57.8081 43.1123 56.2709 43.1123C53.8064 43.1123 51.5672 42.4923 49.5888 41.5545C49.5116 41.8588 49.4355 42.1631 49.2832 42.4684C52.801 43.1528 56.3188 44.9048 58.995 48.6363C62.5128 53.5102 61.4417 59.9066 56.5472 63.4106C54.5573 64.8656 52.3254 65.5781 50.1374 65.5781C46.9449 65.5781 43.8443 64.0618 41.7115 61.1259C38.881 57.4702 38.3459 53.5871 38.8048 50.0841H37.8871C38.2698 53.5871 37.6587 57.3944 34.9814 61.05C32.8393 63.9548 29.6906 65.4805 26.4596 65.4805C24.2705 65.4805 22.0449 64.7805 20.0675 63.3348C15.173 59.8318 14.0268 53.4344 17.6979 48.5605C20.4502 44.7532 23.8919 43.078 27.4097 42.3926C27.2564 42.0883 27.1793 41.784 27.1031 41.4787C25.1445 42.3615 22.9856 42.9326 20.5764 42.9326C19.035 42.9326 17.3913 42.699 15.6319 42.1641C9.89679 40.2605 6.99118 34.5495 8.90288 28.7617C10.4339 24.1869 14.42 21.3704 18.9328 21.3704C20.0529 21.3704 21.2064 21.5438 22.3619 21.9073C26.7204 23.3551 29.4737 26.0968 31.156 29.2955C31.4626 29.066 31.692 28.9144 31.9215 28.6859C29.627 26.021 27.7915 22.6696 27.7915 18.0242C27.7915 12.009 32.3804 7.43939 38.4982 7.43939M38.421 45.8967C42.3977 45.8967 45.9156 42.3936 45.9156 38.3579C45.9156 34.3221 42.3977 30.8949 38.421 30.8949C34.4443 30.8949 30.8504 34.3979 30.8504 38.3579C30.8504 42.3178 34.291 45.8967 38.421 45.8967ZM38.4982 5.96777C35.1494 5.96777 32.0633 7.19845 29.8085 9.43339C27.5547 11.6663 26.3136 14.7175 26.3136 18.0253C26.3136 19.5457 26.4993 21.0183 26.8685 22.4266C25.6503 21.6404 24.3028 21.0017 22.8292 20.5126L22.8177 20.5084L22.8062 20.5053C21.5286 20.1034 20.225 19.8998 18.9317 19.8998C13.6952 19.8998 9.20741 23.1962 7.50013 28.2975V28.3006L7.49804 28.3037C5.34021 34.8362 8.63589 41.3956 15.1636 43.563L15.1813 43.5693L15.1991 43.5745C16.6811 44.0242 18.1558 44.2942 19.5992 44.3783C18.4614 45.3078 17.433 46.4107 16.5059 47.6923C14.5347 50.3146 13.7129 53.4676 14.1895 56.5708C14.6766 59.7373 16.4548 62.5632 19.1966 64.5281C21.3701 66.1161 23.8805 66.9552 26.4575 66.9552C30.2716 66.9552 33.8123 65.1211 36.1704 61.9235C37.0538 60.7167 37.7609 59.4538 38.2896 58.139C38.8351 59.4953 39.5808 60.7873 40.5246 62.0097C42.8608 65.2156 46.3619 67.0528 50.1342 67.0528C52.7019 67.0528 55.2185 66.2064 57.4129 64.6039C60.0974 62.6795 61.862 59.9014 62.3814 56.7806C62.9018 53.6525 62.1238 50.4559 60.1933 47.7806C59.311 46.5509 58.315 45.4771 57.2095 44.56C58.6654 44.4749 60.1339 44.1934 61.5867 43.7199C64.7624 42.7197 67.2968 40.6177 68.7256 37.8022C70.1659 34.9618 70.3588 31.6437 69.2679 28.4564C67.6347 23.3291 63.2126 20.0162 57.998 20.0162C56.6703 20.0162 55.3312 20.2342 54.0192 20.6642H54.016L54.0129 20.6663C52.5674 21.1461 51.2356 21.7754 50.0205 22.5502C50.4085 21.1108 50.6046 19.5976 50.6046 18.0263C50.6046 11.1522 45.3993 5.96881 38.4961 5.96881L38.4982 5.96777ZM38.421 44.425C36.818 44.425 35.2954 43.7874 34.1325 42.6284C32.9696 41.4704 32.3282 39.9531 32.3282 38.3579C32.3282 36.8561 32.9947 35.3357 34.1575 34.186C35.3267 33.0301 36.8806 32.3675 38.421 32.3675C39.9615 32.3675 41.456 33.0291 42.6147 34.1829C43.7734 35.3367 44.4377 36.8582 44.4377 38.3589C44.4377 39.8596 43.7723 41.4413 42.6115 42.6045C41.457 43.7614 39.9302 44.4261 38.4221 44.4261L38.421 44.425Z" fill="#D7013F"/>
</svg>
