<svg width="75" height="74" viewBox="0 0 75 74" fill="none" xmlns="http://www.w3.org/2000/svg">
<g clip-path="url(#clip0_185_324)">
<path d="M37.5001 71.8076C34.9897 71.8076 32.6556 70.9477 30.9274 69.3871C29.5565 68.149 27.9231 65.8817 27.9231 62.1086C27.9231 58.3356 29.515 54.6507 31.1993 50.9372C32.7794 47.4542 34.4058 43.8706 34.8847 39.581C30.5363 40.0535 26.905 41.6581 23.3756 43.2171C19.6111 44.8798 16.0559 46.4504 12.0523 46.4504C8.0488 46.4504 5.93024 44.838 4.6754 43.4855C3.09373 41.7803 2.22217 39.4773 2.22217 37.0004C2.22217 34.5234 3.09373 32.2205 4.6754 30.5153C5.92945 29.1635 8.2275 27.5512 12.0516 27.5512C15.8756 27.5512 19.6103 29.121 23.3741 30.7836C26.9042 32.3427 30.5363 33.9465 34.8839 34.419C34.405 30.1294 32.7787 26.5458 31.1985 23.0636C29.5134 19.3501 27.9223 15.8423 27.9223 11.8922C27.9223 7.94202 29.5557 5.85096 30.9266 4.61364C32.6548 3.0523 34.9889 2.19314 37.4994 2.19314C40.0098 2.19314 42.3439 3.05308 44.0722 4.61364C45.443 5.85173 47.0764 8.11911 47.0764 11.8922C47.0764 15.6652 45.4845 19.3501 43.8002 23.0636C42.2201 26.5466 40.5937 30.1294 40.1148 34.419C44.4633 33.9465 48.0953 32.3427 51.6255 30.7836C55.3892 29.121 58.9444 27.5512 62.948 27.5512C66.9515 27.5512 69.0701 29.1628 70.3249 30.5153C71.9073 32.2205 72.7781 34.5234 72.7781 37.0004C72.7781 39.4773 71.9066 41.7795 70.3249 43.4855C69.0701 44.838 66.772 46.4504 62.948 46.4504C59.1239 46.4504 55.3892 44.8798 51.6255 43.2171C48.0953 41.6581 44.4633 40.0535 40.1156 39.581C40.5945 43.8714 42.2209 47.4549 43.801 50.938C45.4861 54.6515 47.0772 58.1593 47.0772 62.1094C47.0772 66.0595 45.4438 68.1506 44.0729 69.3879C42.3447 70.9492 40.0106 71.8084 37.5001 71.8084V71.8076Z" fill="#E7ECD8"/>
<path d="M37.5 4.38397C41.2198 4.38397 44.855 6.80292 44.855 11.8914C44.855 19.4823 37.8378 25.989 37.7532 36.7491C48.6595 36.6663 55.2542 29.7428 62.9478 29.7428C68.1043 29.7428 70.556 33.3287 70.556 36.9996C70.556 40.6706 68.1043 44.2565 62.9478 44.2565C55.2542 44.2565 48.6595 37.3321 37.7532 37.2486C37.8378 48.0094 44.855 54.5161 44.855 62.1071C44.855 67.1955 41.2198 69.6145 37.5 69.6145C33.7802 69.6145 30.145 67.1955 30.145 62.1071C30.145 54.5161 37.1622 48.0094 37.2468 37.2486C26.3405 37.3321 19.7466 44.2565 12.0522 44.2565C6.89571 44.2565 4.44404 40.669 4.44404 36.9996C4.44404 33.3302 6.89571 29.7428 12.0522 29.7428C19.7466 29.7428 26.3405 36.6663 37.2468 36.7491C37.1622 25.989 30.145 19.4823 30.145 11.8914C30.145 6.80292 33.7802 4.38397 37.5 4.38397ZM37.5 0C34.4331 0 31.566 1.06409 29.4271 2.99585C28.2334 4.07386 27.3061 5.38155 26.6705 6.8818C26.027 8.40138 25.701 10.0864 25.701 11.8914C25.701 16.3101 27.4653 20.1984 29.1715 23.9591C30.29 26.4237 31.432 28.9408 32.1295 31.7008C29.3314 31.0126 26.7802 29.8858 24.2823 28.7823C20.4708 27.0988 16.5299 25.3588 12.0514 25.3588C10.2229 25.3588 8.515 25.6805 6.97487 26.3154C5.45433 26.9418 4.12896 27.8574 3.03637 29.0352C1.07848 31.1456 0 33.9744 0 37.0004C0 40.0264 1.07848 42.8544 3.03637 44.9648C4.12896 46.1426 5.45433 47.0574 6.97487 47.6846C8.515 48.3195 10.2229 48.6412 12.0522 48.6412C16.5307 48.6412 20.4724 46.9005 24.2839 45.2169C26.781 44.1134 29.333 42.9867 32.1303 42.2984C31.4328 45.0592 30.2908 47.5764 29.1723 50.0409C27.466 53.8016 25.7017 57.6899 25.7017 62.1078C25.7017 63.912 26.0278 65.5979 26.6713 67.1174C27.3061 68.6177 28.2341 69.9254 29.4278 71.0034C31.5668 72.9351 34.4338 73.9992 37.5008 73.9992C40.5677 73.9992 43.4348 72.9351 45.5737 71.0034C46.7674 69.9254 47.6946 68.6177 48.3303 67.1174C48.9738 65.5979 49.2998 63.9128 49.2998 62.1078C49.2998 57.6899 47.5355 53.8008 45.8292 50.0409C44.7108 47.5764 43.5688 45.0592 42.8713 42.2984C45.6693 42.9867 48.2206 44.1142 50.7185 45.2169C54.53 46.9005 58.4708 48.6412 62.9494 48.6412C64.7779 48.6412 66.4866 48.3195 68.0267 47.6846C69.5472 47.0574 70.8726 46.1426 71.9652 44.9648C73.9231 42.8544 75.0016 40.0256 75.0016 37.0004C75.0016 33.9752 73.9231 31.1456 71.9652 29.0352C70.8726 27.8574 69.5472 26.9426 68.0267 26.3154C66.4866 25.6805 64.7787 25.3588 62.9501 25.3588C58.4724 25.3588 54.5316 27.0995 50.72 28.7823C48.2221 29.8858 45.6701 31.0126 42.872 31.7008C43.5696 28.94 44.7116 26.4229 45.83 23.9591C47.5363 20.1984 49.3006 16.3101 49.3006 11.8914C49.3006 10.0872 48.9746 8.40138 48.3311 6.8818C47.6962 5.38155 46.7682 4.07386 45.5745 2.99585C43.434 1.06409 40.5669 0 37.5 0Z" fill="#B6B8B7"/>
<path d="M37.4999 4.38397C41.2198 4.38397 44.8549 6.80292 44.8549 11.8914C44.8549 19.4823 37.8377 25.989 37.7531 36.7491C48.6594 36.6663 55.2541 29.7428 62.9477 29.7428C68.1042 29.7428 70.5559 33.3287 70.5559 36.9996C70.5559 40.6706 68.1042 44.2565 62.9477 44.2565C55.2541 44.2565 48.6594 37.3321 37.7531 37.2486C37.8377 48.0094 44.8549 54.5161 44.8549 62.1071C44.8549 67.1955 41.2198 69.6145 37.4999 69.6145C33.7801 69.6145 30.1449 67.1955 30.1449 62.1071C30.1449 54.5161 37.1621 48.0094 37.2468 37.2486C26.3405 37.3321 19.7465 44.2565 12.0521 44.2565C6.89563 44.2565 4.44397 40.669 4.44397 36.9996C4.44397 33.3302 6.89563 29.7428 12.0521 29.7428C19.7465 29.7428 26.3405 36.6663 37.2468 36.7491C37.1621 25.989 30.1449 19.4823 30.1449 11.8914C30.1449 6.80292 33.7801 4.38397 37.4999 4.38397ZM37.4999 1.0958C34.7112 1.0958 32.1107 2.05781 30.1771 3.80397C29.1033 4.77372 28.2686 5.95149 27.6956 7.30403C27.1093 8.68905 26.8123 10.2326 26.8123 11.8914C26.8123 13.817 27.1752 15.8299 27.9213 18.0447C28.5437 19.8922 29.3416 21.6499 30.1857 23.5113C31.5495 26.5165 32.9477 29.5981 33.5748 33.1268C29.9984 32.5082 26.875 31.1286 23.8284 29.7837C21.9427 28.9509 20.1603 28.1636 18.2887 27.5496C16.0439 26.8134 14.0037 26.4554 12.0521 26.4554C10.3709 26.4554 8.80727 26.7485 7.40352 27.3269C6.03269 27.8922 4.83899 28.7158 3.85613 29.7752C2.08635 31.683 1.11133 34.2489 1.11133 37.0004C1.11133 39.7519 2.08635 42.317 3.85613 44.2248C4.83899 45.2842 6.03269 46.1086 7.40352 46.6731C8.80727 47.2516 10.3717 47.5454 12.0521 47.5454C14.0037 47.5454 16.0439 47.1874 18.2895 46.4512C20.1619 45.8371 21.9434 45.0499 23.83 44.2163C26.8758 42.8707 29.9991 41.4911 33.5755 40.8724C32.9485 44.4011 31.5503 47.4828 30.1865 50.4887C29.3423 52.3501 28.5445 54.1078 27.9221 55.9545C27.176 58.1693 26.8131 60.1823 26.8131 62.1079C26.8131 63.7666 27.1101 65.3102 27.6964 66.6952C28.2693 68.0477 29.1041 69.2255 30.1779 70.1953C32.1114 71.9414 34.712 72.9034 37.5007 72.9034C40.2894 72.9034 42.89 71.9414 44.8236 70.1953C45.8974 69.2255 46.7321 68.0477 47.305 66.6952C47.8913 65.3102 48.1884 63.7666 48.1884 62.1079C48.1884 60.1823 47.8255 58.1693 47.0793 55.9545C46.457 54.1071 45.6591 52.3493 44.815 50.4887C43.4512 47.4836 42.0529 44.4011 41.4259 40.8724C45.0023 41.4911 48.1257 42.8707 51.1714 44.2163C53.058 45.0491 54.8395 45.8364 56.712 46.4504C58.9567 47.1866 60.9969 47.5446 62.9485 47.5446C64.6297 47.5446 66.1934 47.2516 67.5971 46.6723C68.968 46.107 70.1617 45.2834 71.1445 44.224C72.9143 42.3162 73.8893 39.7503 73.8893 36.9996C73.8893 34.2489 72.9143 31.6822 71.1445 29.7745C70.1617 28.715 68.968 27.8914 67.5971 27.3261C66.1934 26.7477 64.6297 26.4546 62.9485 26.4546C60.9969 26.4546 58.9567 26.8126 56.712 27.5488C54.8395 28.1629 53.058 28.9501 51.1722 29.783C48.1264 31.1286 45.0023 32.5082 41.4259 33.126C42.0529 29.5981 43.4512 26.5157 44.815 23.5105C45.6591 21.6492 46.457 19.8914 47.0793 18.0447C47.8255 15.8299 48.1884 13.817 48.1884 11.8914C48.1884 10.2326 47.8913 8.68905 47.305 7.30403C46.7321 5.95149 45.8974 4.77372 44.8236 3.80397C42.89 2.05781 40.2894 1.0958 37.5007 1.0958H37.4999Z" fill="#B8FF67"/>
<path d="M37.4999 4.38397C41.2197 4.38397 44.8549 6.80292 44.8549 11.8914C44.8549 19.4823 37.8377 25.989 37.753 36.7491C48.6593 36.6663 55.2541 29.7428 62.9477 29.7428C68.1041 29.7428 70.5558 33.3287 70.5558 36.9996C70.5558 40.6706 68.1041 44.2565 62.9477 44.2565C55.2541 44.2565 48.6593 37.3321 37.753 37.2486C37.8377 48.0094 44.8549 54.5161 44.8549 62.1071C44.8549 67.1955 41.2197 69.6145 37.4999 69.6145C33.78 69.6145 30.1449 67.1955 30.1449 62.1071C30.1449 54.5161 37.162 48.0094 37.2467 37.2486C26.3404 37.3321 19.7464 44.2565 12.0521 44.2565C6.89556 44.2565 4.44389 40.669 4.44389 36.9996C4.44389 33.3302 6.89556 29.7428 12.0521 29.7428C19.7464 29.7428 26.3404 36.6663 37.2467 36.7491C37.162 25.989 30.1449 19.4823 30.1449 11.8914C30.1449 6.80292 33.78 4.38397 37.4999 4.38397ZM37.4999 2.1916C34.9894 2.1916 32.6553 3.05153 30.9271 4.6121C29.5562 5.85019 27.9228 8.11757 27.9228 11.8906C27.9228 15.6636 29.5147 19.3485 31.199 23.062C32.7791 26.5451 34.4047 30.1279 34.8844 34.4183C30.536 33.9458 26.9039 32.3419 23.3746 30.7829C19.6108 29.1202 16.0556 27.5504 12.0521 27.5504C8.0485 27.5504 5.92994 29.162 4.67589 30.5145C3.09344 32.2197 2.22266 34.5227 2.22266 36.9996C2.22266 39.4766 3.09422 41.7787 4.67589 43.4839C5.93072 44.8365 8.22877 46.4488 12.0528 46.4488C15.8769 46.4488 19.6124 44.8782 23.3761 43.2156C26.9063 41.6566 30.5375 40.0519 34.8859 39.5794C34.4071 43.8698 32.7807 47.4534 31.2006 50.9364C29.5155 54.6499 27.9244 58.1577 27.9244 62.1078C27.9244 66.058 29.5578 68.149 30.9286 69.3864C32.6569 70.9477 34.991 71.8069 37.5014 71.8069C40.0119 71.8069 42.346 70.9469 44.0742 69.3864C45.445 68.1483 47.0784 65.8809 47.0784 62.1078C47.0784 58.3348 45.4866 54.6499 43.8022 50.9364C42.2221 47.4534 40.5958 43.8698 40.1169 39.5794C44.4653 40.0519 48.0966 41.6566 51.6267 43.2156C55.3904 44.8782 58.9457 46.4488 62.9492 46.4488C66.9528 46.4488 69.0713 44.8365 70.3262 43.4839C71.9078 41.7787 72.7794 39.4758 72.7794 36.9996C72.7794 34.5234 71.9078 32.2197 70.3262 30.5145C69.0721 29.1628 66.7741 27.5504 62.95 27.5504C59.1259 27.5504 55.3912 29.1202 51.6275 30.7829C48.0974 32.3419 44.4653 33.9465 40.1169 34.4183C40.5958 30.1286 42.2221 26.5451 43.8022 23.062C45.4874 19.3485 47.0784 15.8407 47.0784 11.8906C47.0784 7.94048 45.445 5.84941 44.0742 4.6121C42.346 3.05076 40.0119 2.1916 37.5014 2.1916H37.4999Z" fill="#00879E"/>
<path d="M37.4999 4.38396C41.2197 4.38396 44.8549 6.80292 44.8549 11.8914C44.8549 19.4823 37.8377 25.989 37.753 36.7491C48.6594 36.6663 55.2541 29.7428 62.9477 29.7428C68.1042 29.7428 70.5558 33.3287 70.5558 36.9996C70.5558 40.6706 68.1042 44.2565 62.9477 44.2565C55.2541 44.2565 48.6594 37.3321 37.753 37.2486C37.8377 48.0094 44.8549 54.5161 44.8549 62.1071C44.8549 67.1955 41.2197 69.6145 37.4999 69.6145C33.7801 69.6145 30.1449 67.1955 30.1449 62.1071C30.1449 54.5161 37.1621 48.0094 37.2467 37.2486C26.3404 37.3321 19.7465 44.2565 12.0521 44.2565C6.89559 44.2565 4.44392 40.669 4.44392 36.9996C4.44392 33.3302 6.89559 29.7428 12.0521 29.7428C19.7465 29.7428 26.3404 36.6663 37.2467 36.7491C37.1621 25.989 30.1449 19.4823 30.1449 11.8914C30.1449 6.80292 33.7801 4.38396 37.4999 4.38396ZM37.4999 3.28817C35.2677 3.28817 33.2001 4.04602 31.6772 5.42099C29.9482 6.9831 29.0335 9.22032 29.0335 11.8914C29.0335 15.6072 30.5783 19.0114 32.2133 22.615C33.9885 26.5273 35.8195 30.564 36.0993 35.6177C30.9773 35.3424 26.8859 33.5351 22.92 31.7836C19.2676 30.1704 15.8174 28.647 12.0513 28.647C9.34412 28.647 7.07664 29.5487 5.49419 31.2546C4.09984 32.7572 3.33252 34.798 3.33252 36.9996C3.33252 39.2013 4.10062 41.2413 5.49419 42.7446C7.07742 44.4514 9.3449 45.353 12.0513 45.353C15.8181 45.353 19.2684 43.8288 22.9208 42.2157C26.8859 40.4641 30.9773 38.6568 36.0993 38.3808C35.8195 43.4344 33.9878 47.4712 32.2133 51.3842C30.5783 54.9879 29.0335 58.392 29.0335 62.1078C29.0335 64.7789 29.9474 67.0161 31.6772 68.5782C33.2001 69.954 35.2685 70.7111 37.4999 70.7111C39.7313 70.7111 41.7997 69.9532 43.3226 68.5782C45.0516 67.0161 45.9663 64.7789 45.9663 62.1078C45.9663 58.392 44.4222 54.9879 42.7865 51.3842C41.0112 47.4719 39.1803 43.4352 38.9005 38.3808C44.0225 38.6568 48.1138 40.4641 52.0798 42.2157C55.7322 43.8288 59.1824 45.353 62.9485 45.353C65.6549 45.353 67.9223 44.4514 69.5056 42.7446C70.8999 41.2421 71.6672 39.2013 71.6672 36.9996C71.6672 34.798 70.8991 32.7572 69.5056 31.2546C67.9231 29.5487 65.6556 28.647 62.9485 28.647C59.1824 28.647 55.7322 30.1704 52.0798 31.7836C48.1146 33.5351 44.0225 35.3416 38.9005 35.6177C39.1803 30.564 41.0112 26.5273 42.7865 22.615C44.4215 19.0114 45.9663 15.6072 45.9663 11.8914C45.9663 9.22032 45.0524 6.9831 43.3226 5.42099C41.7997 4.04525 39.7313 3.28817 37.4999 3.28817Z" fill="#EE04A7"/>
</g>
<defs>
<clipPath id="clip0_185_324">
<rect width="75" height="74" fill="white"/>
</clipPath>
</defs>
</svg>
