<svg width="1920" height="969" viewBox="0 0 1920 969" fill="none" xmlns="http://www.w3.org/2000/svg">
<g clip-path="url(#clip0_208_136)">
<path d="M0 968.996C0 -323.013 1920 -323.013 1920 968.996H1887.47C1887.47 -279.236 32.5017 -279.236 32.5017 968.996H0Z" fill="#B8FF67"/>
<path d="M258.413 969C258.413 24.7807 1661.59 24.7807 1661.59 969H1435.7C1435.7 328.793 484.324 328.793 484.324 969H258.439H258.413Z" fill="#B6B8B7"/>
<path d="M32.5275 969C32.5275 -279.232 1887.5 -279.232 1887.5 969H1661.61C1661.61 24.7804 258.439 24.7804 258.439 969H32.5275Z" fill="#EE04A7"/>
<path d="M484.324 969C484.324 328.794 1435.7 328.794 1435.7 969H1357.02C1357.02 434.691 563.01 434.691 563.01 969H484.324Z" fill="#018D44"/>
<path d="M562.984 969C562.984 434.691 1356.99 434.691 1356.99 969H1210.72C1210.72 631.529 709.228 631.529 709.228 969H562.958H562.984Z" fill="#815B12"/>
</g>
<defs>
<clipPath id="clip0_208_136">
<rect width="1920" height="969" fill="white"/>
</clipPath>
</defs>
</svg>
