<svg width="72" height="70" viewBox="0 0 72 70" fill="none" xmlns="http://www.w3.org/2000/svg">
<g clip-path="url(#clip0_185_336)">
<path d="M26.8351 67.4969V50.9279L12.6318 59.2059L3.40967 43.2927L17.7055 35.0006L3.40967 26.7061L12.6318 10.794L26.8351 19.0721V2.50305H45.1647V19.0721L59.3669 10.794L68.5902 26.7061L54.2944 35.0006L68.5902 43.2927L59.368 59.2059L45.1647 50.9279V67.4969H26.8351Z" fill="#B6B8B7"/>
<path d="M42.6754 5.00614V23.4165L58.4665 14.2107L65.1805 25.7936L49.3122 34.9994L65.1805 44.204L58.4665 55.7869L42.6754 46.5823V64.9927H29.3246V46.5823L13.5323 55.7869L6.81945 44.204L22.6878 34.9994L6.81945 25.7948L13.5323 14.2119L29.3246 23.4177V5.00614H42.6754ZM47.6542 0H24.3458V14.7288L16.0288 9.88041L11.7315 7.37499L9.23038 11.69L2.51748 23.2729L0 27.6185L4.33124 30.131L12.7244 35.0006L4.33124 39.869L0 42.3815L2.51748 46.7259L9.23038 58.3088L11.7315 62.6238L16.0288 60.1196L24.3458 55.2724V70.0012H47.6542V55.2724L55.9701 60.1196L60.2674 62.625L62.7684 58.31L69.4825 46.7271L72 42.3826L67.6688 39.8702L59.2756 35.0018L67.6688 30.1322L72 27.6197L69.4825 23.2752L62.7684 11.6924L60.2674 7.37734L55.9701 9.88277L47.6542 14.73V0Z" fill="#815B12"/>
<path d="M42.6754 5.00615V23.4165L58.4665 14.2108L65.1805 25.7936L49.3122 34.9994L65.1805 44.204L58.4665 55.7869L42.6754 46.5823V64.9927H29.3246V46.5823L13.5323 55.7869L6.81945 44.204L22.6878 34.9994L6.81945 25.7948L13.5323 14.2119L29.3246 23.4177V5.00615H42.6754ZM45.995 1.66833H26.0062V17.6239L15.1974 11.3239L12.3321 9.65438L10.6648 12.5318L3.95186 24.1147L2.27393 27.011L5.16142 28.6864L16.0463 35.0006L5.16142 41.3148L2.27393 42.9902L3.95186 45.8865L10.6648 57.4694L12.3321 60.3468L15.1974 58.6773L26.0062 52.3773V68.3329H45.995V52.3773L56.8026 58.6773L59.6678 60.3468L61.3352 57.4705L68.0493 45.8877L69.7284 42.9914L66.8409 41.316L55.956 35.0018L66.8409 28.6876L69.7284 27.0122L68.0493 24.1159L61.3352 12.533L59.6678 9.65555L56.8026 11.3251L45.995 17.6251V1.66833Z" fill="#00879E"/>
<path d="M42.6753 5.00615V23.4165L58.4664 14.2108L65.1804 25.7936L49.3121 34.9994L65.1804 44.204L58.4664 55.7869L42.6753 46.5823V64.9927H29.3245V46.5823L13.5322 55.7869L6.81934 44.204L22.6877 34.9994L6.81934 25.7948L13.5322 14.2119L29.3245 23.4177V5.00615H42.6753ZM44.3345 3.33783H27.6641V20.5214L14.3636 12.7685L12.9316 11.9337L12.0979 13.3725L5.38496 24.9554L4.54541 26.4035L5.98916 27.2406L19.3658 35.0006L5.98916 42.7594L4.54541 43.5965L5.38496 45.0447L12.0979 56.6275L12.9316 58.0663L14.3636 57.2315L27.6641 49.4798V66.6634H44.3345V49.4798L57.6338 57.2315L59.0659 58.0663L59.8996 56.6275L66.6136 45.0447L67.4532 43.5965L66.0094 42.7594L52.6328 35.0006L66.0094 27.2406L67.4532 26.4035L66.6136 24.9554L59.8996 13.3725L59.0659 11.9337L57.6338 12.7685L44.3345 20.5214V3.33783Z" fill="#9B15EF"/>
</g>
<defs>
<clipPath id="clip0_185_336">
<rect width="72" height="70" fill="white"/>
</clipPath>
</defs>
</svg>
